<svg width="48" height="48" viewBox="0 0 512 512" fill="none" xmlns="http://www.w3.org/2000/svg">
  <defs>
    <linearGradient id="g48" x1="0%" y1="0%" x2="100%" y2="100%">
      <stop offset="0%" stop-color="#8b5cf6" />
      <stop offset="100%" stop-color="#06b6d4" />
    </linearGradient>
  </defs>
  <path d="M256 60 C360 60, 440 140, 440 256 C440 372, 360 452, 256 452 C152 452, 110 372, 100 350" stroke="url(#g48)" stroke-width="36" stroke-linecap="round" fill="none" />
  <path d="M440 256 L475 290 L440 350 L405 290 Z" fill="url(#g48)" />
  <path d="M256 60 C180 60, 120 100, 100 160 C80 140, 40 150, 40 200 C40 230, 60 250, 80 250 C60 260, 40 290, 40 330 C40 380, 80 400, 120 400 C150 430, 200 452, 256 452" stroke="url(#g48)" stroke-width="28" stroke-linecap="round" fill="none" />
</svg>
